<svg width="48" height="48" viewBox="0 0 48 48" fill="none" xmlns="http://www.w3.org/2000/svg">
<path d="M42.8396 21.8447C43.1976 21.6868 43.5015 21.4273 43.7135 21.0983C43.9255 20.7694 44.0363 20.3855 44.0322 19.9942C44.0282 19.6029 43.9094 19.2214 43.6907 18.8969C43.472 18.5724 43.1628 18.3192 42.8016 18.1687L25.6596 10.3607C25.1385 10.123 24.5724 10 23.9996 10C23.4268 10 22.8607 10.123 22.3396 10.3607L5.1996 18.1607C4.84353 18.3167 4.54063 18.573 4.32793 18.8983C4.11523 19.2237 4.00195 19.604 4.00195 19.9927C4.00195 20.3814 4.11523 20.7617 4.32793 21.0871C4.54063 21.4124 4.84353 21.6688 5.1996 21.8247L22.3396 29.6407C22.8607 29.8784 23.4268 30.0014 23.9996 30.0014C24.5724 30.0014 25.1385 29.8784 25.6596 29.6407L42.8396 21.8447Z" stroke="#0014E6" stroke-width="2" stroke-linecap="round" stroke-linejoin="round"/>
<path d="M44 20V32" stroke="#0014E6" stroke-width="2" stroke-linecap="round" stroke-linejoin="round"/>
<path d="M12 25V32C12 33.5913 13.2643 35.1174 15.5147 36.2426C17.7652 37.3679 20.8174 38 24 38C27.1826 38 30.2348 37.3679 32.4853 36.2426C34.7357 35.1174 36 33.5913 36 32V25" stroke="#0014E6" stroke-width="2" stroke-linecap="round" stroke-linejoin="round"/>
</svg>
