<svg width="48" height="48" viewBox="0 0 48 48" fill="none" xmlns="http://www.w3.org/2000/svg">
<path d="M29.4007 12.5995C29.0342 12.9733 28.829 13.476 28.829 13.9995C28.829 14.523 29.0342 15.0256 29.4007 15.3995L32.6007 18.5995C32.9745 18.9659 33.4772 19.1712 34.0007 19.1712C34.5242 19.1712 35.0268 18.9659 35.4007 18.5995L42.9407 11.0595C43.9464 13.2818 44.2509 15.7579 43.8136 18.1578C43.3763 20.5576 42.2181 22.7672 40.4932 24.492C38.7684 26.2169 36.5588 27.3751 34.159 27.8124C31.7592 28.2496 29.2831 27.9451 27.0607 26.9395L13.2407 40.7595C12.445 41.5551 11.3659 42.0021 10.2407 42.0021C9.11547 42.0021 8.03634 41.5551 7.24069 40.7595C6.44504 39.9638 5.99805 38.8847 5.99805 37.7595C5.99805 36.6342 6.44504 35.5551 7.24069 34.7595L21.0607 20.9395C20.055 18.7171 19.7505 16.241 20.1878 13.8412C20.625 11.4414 21.7833 9.23178 23.5081 7.50691C25.233 5.78205 27.4426 4.62381 29.8424 4.18656C32.2422 3.7493 34.7183 4.0538 36.9407 5.05947L29.4207 12.5795L29.4007 12.5995Z" stroke="black" stroke-width="2" stroke-linecap="round" stroke-linejoin="round"/>
</svg>
