<svg width="48" height="48" viewBox="0 0 48 48" fill="none" xmlns="http://www.w3.org/2000/svg">
<path d="M16 14C18.2091 14 20 12.2091 20 10C20 7.79086 18.2091 6 16 6C13.7909 6 12 7.79086 12 10C12 12.2091 13.7909 14 16 14Z" stroke="#0F172B" stroke-width="2"/>
<path d="M28 38H13C9 38 6 35.083 6 31C6 26.917 9 24 13 24H20H35C39 24 42 21.083 42 17C42 12.917 39 10 35 10H20M6 10H12M36 38H42" stroke="#0F172B" stroke-width="2" stroke-linecap="round" stroke-linejoin="round"/>
<path d="M32 42C34.2091 42 36 40.2091 36 38C36 35.7909 34.2091 34 32 34C29.7909 34 28 35.7909 28 38C28 40.2091 29.7909 42 32 42Z" stroke="#0F172B" stroke-width="2"/>
</svg>
