<svg width="48" height="48" viewBox="0 0 48 48" fill="none" xmlns="http://www.w3.org/2000/svg">
<path d="M8.00096 27.9993C7.62249 28.0006 7.25142 27.8945 6.93087 27.6933C6.61031 27.4921 6.35343 27.2041 6.19006 26.8627C6.02669 26.5213 5.96355 26.1405 6.00796 25.7647C6.05237 25.3888 6.20252 25.0333 6.44096 24.7393L26.241 4.33935C26.3895 4.16791 26.5919 4.05206 26.8149 4.01081C27.038 3.96957 27.2684 4.00537 27.4684 4.11236C27.6684 4.21934 27.8261 4.39114 27.9156 4.59957C28.0051 4.80799 28.0211 5.04065 27.961 5.25935L24.121 17.2993C24.0077 17.6024 23.9697 17.9284 24.0101 18.2494C24.0506 18.5703 24.1683 18.8767 24.3531 19.1422C24.538 19.4077 24.7845 19.6244 25.0715 19.7737C25.3585 19.923 25.6775 20.0004 26.001 19.9993H40.001C40.3794 19.9981 40.7505 20.1042 41.0711 20.3054C41.3916 20.5066 41.6485 20.7946 41.8119 21.136C41.9752 21.4774 42.0384 21.8582 41.994 22.234C41.9495 22.6099 41.7994 22.9654 41.561 23.2593L21.761 43.6593C21.6124 43.8308 21.41 43.9466 21.187 43.9879C20.964 44.0291 20.7335 43.9933 20.5335 43.8863C20.3335 43.7794 20.1758 43.6076 20.0863 43.3991C19.9968 43.1907 19.9808 42.9581 20.041 42.7393L23.881 30.6994C23.9942 30.3963 24.0322 30.0703 23.9918 29.7493C23.9513 29.4284 23.8336 29.122 23.6488 28.8565C23.4639 28.591 23.2174 28.3743 22.9304 28.225C22.6434 28.0757 22.3245 27.9983 22.001 27.9993H8.00096Z" stroke="#0014E6" stroke-width="2" stroke-linecap="round" stroke-linejoin="round"/>
</svg>
